<?xml version="1.0" standalone="no"?>
<!DOCTYPE svg PUBLIC "-//W3C//DTD SVG 20010904//EN"
 "http://www.w3.org/TR/2001/REC-SVG-20010904/DTD/svg10.dtd">
<svg version="1.0" xmlns="http://www.w3.org/2000/svg"
 width="580.000000pt" height="386.000000pt" viewBox="0 0 580.000000 386.000000"
 preserveAspectRatio="xMidYMid meet">

<g transform="translate(0.000000,386.000000) scale(0.100000,-0.100000)"
fill="#000000" stroke="none">
<path d="M2745 3283 c-317 -39 -622 -193 -833 -419 -440 -470 -495 -1160 -135
-1703 115 -173 320 -350 520 -450 300 -150 657 -181 988 -86 113 32 328 138
420 207 288 215 487 545 540 898 42 270 -1 544 -125 797 -197 403 -575 681
-1020 748 -86 14 -279 18 -355 8z m409 -64 c55 -11 103 -22 107 -24 3 -3 9
-26 12 -52 4 -27 9 -70 13 -97 6 -41 4 -51 -11 -63 -28 -20 -35 -16 -29 17 8
39 -13 48 -70 26 -66 -25 -80 -46 -71 -103 20 -116 7 -149 -83 -203 -66 -40
-79 -60 -88 -138 -6 -52 -13 -71 -46 -112 -41 -51 -45 -75 -16 -93 22 -15 78
3 153 49 78 47 120 53 186 24 46 -19 53 -20 66 -7 13 13 9 21 -38 67 -32 31
-49 54 -42 57 7 2 64 -27 128 -65 87 -53 133 -74 187 -87 90 -20 141 -48 171
-94 39 -59 204 -364 211 -391 4 -14 12 -37 18 -52 l10 -27 32 24 c50 38 86
112 86 177 0 58 -10 77 -89 168 -17 19 -31 41 -31 49 0 23 87 8 181 -33 99
-43 94 -32 109 -203 22 -248 -40 -528 -165 -748 -159 -279 -428 -501 -731
-603 -254 -86 -558 -87 -824 -2 -109 35 -287 127 -294 153 -4 12 -10 79 -13
149 -7 142 2 180 46 201 16 7 27 22 29 37 4 33 -34 69 -168 160 -126 85 -163
130 -256 316 l-67 133 -61 27 c-34 14 -68 33 -78 41 -11 10 -18 11 -23 4 -18
-30 -24 -3 -19 87 9 165 71 427 101 427 6 0 21 12 33 28 12 15 36 35 53 44 18
8 49 31 69 49 71 63 113 85 184 95 110 15 113 16 137 66 18 38 29 49 57 56 44
11 136 99 151 145 12 38 5 82 -14 82 -17 0 -98 -52 -117 -74 -34 -43 -90 -36
-90 10 0 54 45 90 145 115 34 9 52 20 65 41 10 16 27 36 39 44 11 8 21 21 21
28 0 14 87 44 205 72 161 37 352 38 529 3z"/>
<path d="M2729 3186 c-3 -3 -31 -8 -64 -11 -74 -7 -79 -11 -59 -44 14 -25 15
-30 0 -64 -8 -21 -28 -45 -43 -54 -37 -20 -123 -129 -123 -154 0 -33 37 -22
93 29 54 49 164 102 211 102 35 0 116 101 116 146 0 18 -4 35 -9 38 -13 9
-115 19 -122 12z"/>
<path d="M1671 2370 c-7 -23 -10 -44 -8 -47 7 -6 29 65 25 79 -2 6 -10 -8 -17
-32z"/>
<path d="M2994 2365 c-130 -65 -250 -198 -336 -372 -39 -79 -43 -93 -43 -162
0 -146 68 -248 182 -271 35 -8 96 -9 172 -5 133 8 173 0 214 -43 57 -59 61
-90 62 -402 1 -339 11 -390 75 -390 41 0 110 52 214 161 206 217 323 404 420
671 76 210 75 242 -8 282 -88 43 -177 133 -232 234 -26 48 -58 101 -71 118
-35 47 -101 70 -218 78 -123 7 -192 37 -231 97 -23 37 -26 39 -78 39 -41 0
-69 -8 -122 -35z"/>
</g>
</svg>
